<?xml version="1.0" standalone="no"?>
<!DOCTYPE svg PUBLIC "-//W3C//DTD SVG 20010904//EN"
 "http://www.w3.org/TR/2001/REC-SVG-20010904/DTD/svg10.dtd">
<svg version="1.0" xmlns="http://www.w3.org/2000/svg"
 width="98.000000pt" height="83.000000pt" viewBox="0 0 98.000000 83.000000"
 preserveAspectRatio="xMidYMid meet">
<metadata>
Created by potrace 1.10, written by Peter Selinger 2001-2011
</metadata>
<g transform="translate(0.000000,83.000000) scale(0.100000,-0.100000)"
fill="#000000" stroke="none">
<path d="M600 613 c0 -22 -11 -55 -25 -78 -14 -22 -25 -48 -25 -57 0 -14 -5
-12 -26 8 -20 20 -33 25 -60 22 -38 -4 -40 -2 -19 26 17 23 19 36 5 36 -6 0
-18 -15 -26 -34 -16 -31 -19 -33 -55 -29 -32 5 -42 1 -67 -24 -35 -34 -48 -94
-34 -147 8 -28 8 -36 -3 -36 -7 0 -22 -11 -32 -24 -19 -23 -19 -23 -43 -4 -32
26 -85 21 -85 -8 -1 -12 -7 -29 -15 -39 -12 -15 -12 -18 3 -26 12 -7 15 -17
11 -33 -4 -18 -1 -25 16 -29 25 -6 71 8 82 26 5 8 13 5 28 -11 32 -34 64 -37
200 -18 77 10 191 16 298 16 l172 0 0 173 c0 165 -1 174 -25 212 -14 23 -25
56 -25 78 l0 37 -125 0 -125 0 0 -37z m230 -3 c0 -19 -7 -20 -105 -20 -98 0
-105 1 -105 20 0 19 7 20 105 20 98 0 105 -1 105 -20z m-10 -45 c0 -2 -9 -19
-19 -36 l-19 -31 -101 -1 c-56 -1 -101 0 -101 3 0 3 9 20 20 38 l20 32 100 0
c55 0 100 -2 100 -5z m38 -40 c16 -35 16 -35 -18 -35 -16 0 -30 2 -30 5 0 11
24 55 30 55 4 0 12 -11 18 -25z m-462 -51 c16 -13 16 -15 2 -10 -11 3 -18 0
-18 -9 0 -17 31 -28 54 -19 9 3 16 12 16 20 0 9 -6 11 -17 7 -16 -6 -16 -5 -4
10 32 39 110 -4 112 -62 3 -61 -13 -131 -30 -131 -3 0 -34 5 -67 10 -34 6 -80
11 -103 12 -43 1 -48 8 -51 63 -4 60 0 76 25 100 28 29 53 32 81 9z m384 -40
l0 -34 -105 0 -105 0 0 38 0 37 105 -3 105 -3 0 -35z m100 1 c0 -34 -1 -35
-40 -35 -39 0 -40 1 -40 35 0 34 1 35 40 35 39 0 40 -1 40 -35z m-100 -160 l0
-105 -77 0 c-78 0 -78 0 -54 19 33 26 21 48 -34 63 l-45 12 0 58 0 58 105 0
105 0 0 -105z m100 0 l0 -105 -40 0 -40 0 0 105 0 105 40 0 40 0 0 -105z
m-527 -35 c-7 -53 13 -53 22 1 5 26 11 39 19 36 7 -3 38 -8 69 -12 50 -6 55
-9 54 -31 -2 -29 17 -32 21 -4 4 23 17 23 77 0 51 -19 31 -31 -99 -60 -27 -6
-50 -9 -52 -7 -2 2 -5 19 -7 38 -3 42 -22 36 -22 -8 0 -17 -2 -33 -5 -36 -3
-2 -33 -7 -68 -10 l-62 -5 -6 39 c-4 21 -11 39 -17 39 -6 0 -7 -16 -3 -42 l7
-42 -26 24 c-33 31 -34 82 -3 104 12 9 41 16 64 16 l42 0 -5 -40z m-178 20 c4
-6 -7 -10 -24 -10 -17 0 -31 5 -31 10 0 6 11 10 24 10 14 0 28 -4 31 -10z m20
-41 c10 -16 -2 -23 -40 -23 -38 0 -50 7 -40 23 8 14 72 14 80 0z m-5 -46 c0
-2 -12 -8 -26 -13 -25 -10 -48 -5 -40 8 4 7 66 12 66 5z"/>
</g>
</svg>
